<svg width="35" height="31" viewBox="0 0 35 31" fill="none" xmlns="http://www.w3.org/2000/svg">
<g filter="url(#filter0_d_39_114)">
<path d="M30.5131 13.1113V9.22501C30.5131 8.678 30.2958 8.1534 29.909 7.7666C29.5222 7.37981 28.9976 7.16251 28.4506 7.16251H21.5537C21.0067 7.16251 20.4821 7.37981 20.0953 7.7666C19.7085 8.1534 19.4912 8.678 19.4912 9.22501V10.4806H17.61V4.17439C17.61 3.99205 17.5376 3.81718 17.4086 3.68825C17.2797 3.55932 17.1048 3.48689 16.9225 3.48689H15.1687V2.23126C15.1687 1.68425 14.9514 1.15965 14.5646 0.772855C14.1779 0.386061 13.6532 0.168762 13.1062 0.168762H6.20874C5.66173 0.168762 5.13713 0.386061 4.75033 0.772855C4.36354 1.15965 4.14624 1.68425 4.14624 2.23126V6.11751C4.14624 6.66452 4.36354 7.18913 4.75033 7.57592C5.13713 7.96271 5.66173 8.18001 6.20874 8.18001H13.1062C13.6532 8.18001 14.1779 7.96271 14.5646 7.57592C14.9514 7.18913 15.1687 6.66452 15.1687 6.11751V4.86189H16.235V17.6381H15.1687V16.3825C15.1687 15.8355 14.9514 15.3109 14.5646 14.9241C14.1779 14.5373 13.6532 14.32 13.1062 14.32H6.20874C5.66173 14.32 5.13713 14.5373 4.75033 14.9241C4.36354 15.3109 4.14624 15.8355 4.14624 16.3825V20.2688C4.14624 20.8158 4.36354 21.3404 4.75033 21.7272C5.13713 22.114 5.66173 22.3313 6.20874 22.3313H13.1062C13.6532 22.3313 14.1779 22.114 14.5646 21.7272C14.9514 21.3404 15.1687 20.8158 15.1687 20.2688V19.0131H16.9225C17.1048 19.0131 17.2797 18.9407 17.4086 18.8118C17.5376 18.6828 17.61 18.508 17.61 18.3256V11.8556H19.4912V13.1113C19.4912 13.6583 19.7085 14.1829 20.0953 14.5697C20.4821 14.9565 21.0067 15.1738 21.5537 15.1738H28.4512C28.9981 15.1736 29.5226 14.9562 29.9092 14.5694C30.2959 14.1827 30.5131 13.6582 30.5131 13.1113ZM13.7937 6.11751C13.7937 6.2078 13.776 6.2972 13.7414 6.38061C13.7069 6.46402 13.6562 6.53981 13.5924 6.60365C13.5285 6.66749 13.4527 6.71813 13.3693 6.75268C13.2859 6.78723 13.1965 6.80501 13.1062 6.80501H7.70499V1.54439H13.1075C13.2898 1.54439 13.4647 1.61682 13.5936 1.74575C13.7226 1.87468 13.795 2.04955 13.795 2.23189L13.7937 6.11751ZM13.7937 20.2688C13.7937 20.4511 13.7213 20.626 13.5924 20.7549C13.4634 20.8838 13.2886 20.9563 13.1062 20.9563H7.70499V15.6956H13.1075C13.2898 15.6956 13.4647 15.7681 13.5936 15.897C13.7226 16.0259 13.795 16.2008 13.795 16.3831L13.7937 20.2688ZM29.1381 9.22501V13.1113C29.1381 13.2936 29.0657 13.4685 28.9368 13.5974C28.8078 13.7263 28.633 13.7988 28.4506 13.7988H22.83V8.53814H28.455C28.6365 8.53929 28.8101 8.61215 28.9381 8.74082C29.066 8.86949 29.138 9.04354 29.1381 9.22501Z" fill="#9DBEFF"/>
</g>
<defs>
<filter id="filter0_d_39_114" x="0.14624" y="0.168762" width="34.3669" height="30.1625" filterUnits="userSpaceOnUse" color-interpolation-filters="sRGB">
<feFlood flood-opacity="0" result="BackgroundImageFix"/>
<feColorMatrix in="SourceAlpha" type="matrix" values="0 0 0 0 0 0 0 0 0 0 0 0 0 0 0 0 0 0 127 0" result="hardAlpha"/>
<feOffset dy="4"/>
<feGaussianBlur stdDeviation="2"/>
<feComposite in2="hardAlpha" operator="out"/>
<feColorMatrix type="matrix" values="0 0 0 0 0 0 0 0 0 0 0 0 0 0 0 0 0 0 0.25 0"/>
<feBlend mode="normal" in2="BackgroundImageFix" result="effect1_dropShadow_39_114"/>
<feBlend mode="normal" in="SourceGraphic" in2="effect1_dropShadow_39_114" result="shape"/>
</filter>
</defs>
</svg>
