<svg width="27" height="27" viewBox="0 0 27 27" fill="none" xmlns="http://www.w3.org/2000/svg">
<path d="M24.3268 2.91667H22.6268C22.5462 2.18537 22.1992 1.50932 21.6521 1.01749C21.1049 0.525654 20.3958 0.252453 19.6601 0.25H7.66011C6.92439 0.252453 6.21532 0.525654 5.66816 1.01749C5.12099 1.50932 4.77403 2.18537 4.69345 2.91667H2.99345C2.37483 2.91737 1.78174 3.16343 1.34431 3.60086C0.90688 4.0383 0.66082 4.63138 0.660114 5.25V7.45C0.64297 8.77959 1.12016 10.0682 1.99915 11.0659C2.87814 12.0636 4.0963 12.6994 5.41745 12.85C6.05253 14.2949 7.05564 15.5479 8.32658 16.4838C9.59752 17.4197 11.0918 18.0057 12.6601 18.1833V20.3167C10.0761 20.6607 8.66011 22.374 8.66011 25.25V26.25H18.6601V25.25C18.6601 22.3793 17.2441 20.666 14.6601 20.3167V18.1833C16.2284 18.0057 17.7227 17.4197 18.9936 16.4838C20.2646 15.5479 21.2677 14.2949 21.9028 12.85C23.2239 12.6994 24.4421 12.0636 25.3211 11.0659C26.2001 10.0682 26.6773 8.77959 26.6601 7.45V5.25C26.6594 4.63138 26.4134 4.0383 25.9759 3.60086C25.5385 3.16343 24.9454 2.91737 24.3268 2.91667ZM2.66011 7.45V5.25C2.66011 5.16159 2.69523 5.07681 2.75775 5.0143C2.82026 4.95179 2.90504 4.91667 2.99345 4.91667H4.66011V9.25C4.66396 9.70508 4.70184 10.1592 4.77345 10.6087C4.1355 10.3687 3.58867 9.93511 3.20966 9.36863C2.83065 8.80215 2.63848 8.13123 2.66011 7.45ZM16.5761 24.25H10.7441C11.0108 22.8593 11.9268 22.25 13.6601 22.25C15.3934 22.25 16.3068 22.8593 16.5761 24.25ZM13.6601 16.25C11.8042 16.2479 10.025 15.5097 8.71271 14.1974C7.40041 12.8851 6.66223 11.1059 6.66011 9.25V3.25C6.66047 2.98489 6.76594 2.73074 6.9534 2.54328C7.14086 2.35582 7.39501 2.25035 7.66011 2.25H19.6601C19.9252 2.25035 20.1794 2.35582 20.3668 2.54328C20.5543 2.73074 20.6598 2.98489 20.6601 3.25V9.25C20.658 11.1059 19.9198 12.8851 18.6075 14.1974C17.2952 15.5097 15.516 16.2479 13.6601 16.25ZM24.6561 7.45C24.6777 8.13123 24.4856 8.80215 24.1066 9.36863C23.7276 9.93511 23.1807 10.3687 22.5428 10.6087C22.6157 10.1593 22.6549 9.70518 22.6601 9.25V4.91667H24.3268C24.4152 4.91667 24.5 4.95179 24.5625 5.0143C24.625 5.07681 24.6601 5.16159 24.6601 5.25L24.6561 7.45Z" fill="#FFBB00"/>
</svg>
