<svg width="34" height="32" viewBox="0 0 34 32" fill="none" xmlns="http://www.w3.org/2000/svg">
<g filter="url(#filter0_d_39_99)">
<path d="M29 5.51667C28.6323 5.25632 28.1964 5.10948 27.7461 5.09431C27.2958 5.07914 26.851 5.19632 26.4666 5.43133L23.1413 7.442C23.0723 7.48401 22.9897 7.49762 22.9109 7.47996C22.832 7.4623 22.7631 7.41476 22.7186 7.34733L18.932 1.622C18.721 1.30211 18.4339 1.03957 18.0965 0.857916C17.7591 0.676264 17.3818 0.581177 16.9986 0.581177C16.6154 0.581177 16.2382 0.676264 15.9008 0.857916C15.5634 1.03957 15.2763 1.30211 15.0653 1.622L11.284 7.34333C11.2389 7.41198 11.1689 7.46039 11.0888 7.47831C11.0086 7.49623 10.9246 7.48225 10.8546 7.43933L7.5333 5.43133C7.14536 5.19699 6.69745 5.08098 6.24452 5.09754C5.79159 5.1141 5.35335 5.26251 4.98356 5.52456C4.61377 5.78662 4.32851 6.15092 4.16279 6.57276C3.99707 6.99461 3.95809 7.45565 4.05063 7.89933L6.21597 17.5833L5.4773 21.9727C5.43721 22.2116 5.44966 22.4565 5.5138 22.6902C5.57793 22.9238 5.69221 23.1407 5.84868 23.3257C6.00515 23.5108 6.20006 23.6595 6.41983 23.7615C6.63961 23.8636 6.87899 23.9165 7.1213 23.9167H26.8786C27.121 23.9165 27.3603 23.8636 27.5801 23.7615C27.7999 23.6595 27.9948 23.5108 28.1513 23.3257C28.3077 23.1407 28.422 22.9238 28.4861 22.6902C28.5503 22.4565 28.5627 22.2116 28.5226 21.9727L27.784 17.5833L29.9493 7.898V7.874C30.0402 7.43126 29.9986 6.97156 29.8298 6.55231C29.6609 6.13306 29.3723 5.77285 29 5.51667ZM7.51597 21.9167L8.07597 18.5833H25.924L26.484 21.9167H7.51597ZM25.9586 16.5833H8.0413L6.00797 7.48733C5.99562 7.42491 6.0017 7.36025 6.02546 7.30122C6.04922 7.24219 6.08964 7.19135 6.14179 7.15489C6.19394 7.11843 6.25556 7.09792 6.31916 7.09587C6.38276 7.09382 6.44558 7.11031 6.49997 7.14333L9.81863 9.15133C10.3305 9.46266 10.9433 9.56312 11.5278 9.43154C12.1123 9.29997 12.6229 8.94664 12.952 8.446L16.7333 2.726C16.8973 2.478 17.0973 2.478 17.2666 2.726L21.0533 8.45C21.3814 8.94959 21.8906 9.30224 22.4737 9.43358C23.0568 9.56492 23.6681 9.46468 24.1786 9.154L27.5 7.14333C27.5539 7.11091 27.6159 7.0946 27.6788 7.09634C27.7417 7.09807 27.8027 7.11777 27.8548 7.15311C27.9068 7.18846 27.9476 7.23796 27.9724 7.29577C27.9972 7.35358 28.0049 7.41728 27.9946 7.47933L25.9586 16.5833Z" fill="#6B27FF"/>
</g>
<defs>
<filter id="filter0_d_39_99" x="0.00158691" y="0.581177" width="33.9948" height="31.3355" filterUnits="userSpaceOnUse" color-interpolation-filters="sRGB">
<feFlood flood-opacity="0" result="BackgroundImageFix"/>
<feColorMatrix in="SourceAlpha" type="matrix" values="0 0 0 0 0 0 0 0 0 0 0 0 0 0 0 0 0 0 127 0" result="hardAlpha"/>
<feOffset dy="4"/>
<feGaussianBlur stdDeviation="2"/>
<feComposite in2="hardAlpha" operator="out"/>
<feColorMatrix type="matrix" values="0 0 0 0 0 0 0 0 0 0 0 0 0 0 0 0 0 0 0.25 0"/>
<feBlend mode="normal" in2="BackgroundImageFix" result="effect1_dropShadow_39_99"/>
<feBlend mode="normal" in="SourceGraphic" in2="effect1_dropShadow_39_99" result="shape"/>
</filter>
</defs>
</svg>
